<?xml version="1.0" encoding="UTF-8" standalone="no"?>
<!-- Created with Inkscape (http://www.inkscape.org/) -->

<svg
   width="474.10699mm"
   height="96.106598mm"
   viewBox="0 0 474.10699 96.106598"
   version="1.1"
   id="svg1"
   xml:space="preserve"
   inkscape:version="1.3.2 (091e20e, 2023-11-25)"
   sodipodi:docname="garnet-logotype.svg"
   xmlns:inkscape="http://www.inkscape.org/namespaces/inkscape"
   xmlns:sodipodi="http://sodipodi.sourceforge.net/DTD/sodipodi-0.dtd"
   xmlns="http://www.w3.org/2000/svg"
   xmlns:svg="http://www.w3.org/2000/svg"><sodipodi:namedview
     id="namedview1"
     pagecolor="#ffffff"
     bordercolor="#000000"
     borderopacity="0.25"
     inkscape:showpageshadow="2"
     inkscape:pageopacity="0.0"
     inkscape:pagecheckerboard="0"
     inkscape:deskcolor="#d1d1d1"
     inkscape:document-units="mm"
     inkscape:zoom="0.5946522"
     inkscape:cx="830.7377"
     inkscape:cy="237.95422"
     inkscape:window-width="1712"
     inkscape:window-height="1040"
     inkscape:window-x="0"
     inkscape:window-y="34"
     inkscape:window-maximized="0"
     inkscape:current-layer="layer1" /><defs
     id="defs1"><rect
       x="430.50375"
       y="68.947868"
       width="1032.5363"
       height="248.88498"
       id="rect2" /><inkscape:path-effect
       effect="fillet_chamfer"
       id="path-effect10"
       is_visible="true"
       lpeversion="1"
       nodesatellites_param="F,0,0,1,0,12.2803,0,1 @ F,0,0,1,0,12.2803,0,1 @ F,0,0,1,0,12.2803,0,1 @ F,0,0,1,0,12.2803,0,1"
       radius="0"
       unit="px"
       method="auto"
       mode="F"
       chamfer_steps="1"
       flexible="false"
       use_knot_distance="true"
       apply_no_radius="true"
       apply_with_radius="true"
       only_selected="false"
       hide_knots="false" /></defs><g
     inkscape:label="Layer 1"
     inkscape:groupmode="layer"
     id="layer1"
     transform="translate(-85.873024,-114.794)"><path
       style="fill:#007acd;fill-opacity:1;stroke-width:0.264583"
       id="rect1"
       width="96.106598"
       height="96.106598"
       x="85.873024"
       y="114.794"
       inkscape:path-effect="#path-effect10"
       sodipodi:type="rect"
       d="m 98.153324,114.794 h 71.545996 a 12.2803,12.2803 45 0 1 12.2803,12.2803 v 71.546 a 12.2803,12.2803 135 0 1 -12.2803,12.2803 H 98.153324 a 12.2803,12.2803 45 0 1 -12.2803,-12.2803 v -71.546 a 12.2803,12.2803 135 0 1 12.2803,-12.2803 z" /><g
       id="g10"
       transform="matrix(0.25981121,0,0,0.26930456,-86.450861,-5.9275799)"
       style="stroke:#fafafa;stroke-width:4.03758;stroke-dasharray:none;stroke-opacity:1"><path
         fill="#5b5b5f"
         d="m 848.15239,773.1273 c -13.3,-16.5 -39.3,-48.6 -77.8,-96.2 -32.5,-40.2 -58.4,-72.3 -77.7,-96.4 v -4.6 c 5.8,-6.7 14.2,-16.3 25.2,-28.8 11.2,-12.8 19.7,-22.6 25.5,-29.2 10.2,-11.8 16,-18 17.5,-18.5 h 178.8 c 4.4,4.3 15.8,17.2 34.4,38.7 19.3,22.3 30.40001,35.7 33.10001,40.4 -17.60001,23.4 -69.70001,88.2 -156.20001,194.4 h -2.8 z m -66.9,-188.8 h -72.4 c 37.4,48.7 80.1,101.6 128.1,158.5 -17.3,-47.6 -35.9,-100.4 -55.7,-158.5 z m -68.9,-16.3 c -0.8,0.5 -1.3,1 -1.6,1.3 -1.3,1.1 -1.7,2.4 -1.2,3.8 h 67.5 c -6.9,-24.3 -13,-43.9 -18.2,-59 -19.8,23.3 -34.8,40.8 -45,52.7 -0.4,0.3 -0.8,0.7 -1.5,1.2 z m 119.6,-50 c 0.2,-0.3 0.7,-0.8 1.5,-1.5 0.8,-0.8 1.3,-1.3 1.6,-1.7 1.2,-1.5 1.6,-2.9 1.2,-4.2 -4.2,0.1 -15.8,0.1 -35,-0.2 -14.3,-0.1 -25.6,0.3 -34,1.1 4.2,12.5 10,31.5 17.5,57 9.4,-9.1 25.2,-25.9 47.2,-50.5 z m 48,151.2 c 12.5,-35.9 22.3,-64.2 29.4,-84.9 h -118.9 c 33.3,95.5 53.2,152.1 59.7,169.6 5.7,-16.2 15.6,-44.4 29.8,-84.7 z m -54.7,-129.8 c -13.1,14.3 -21.2,23.1 -24.2,26.5 -3.2,3.4 -4.6,5.9 -4.2,7.2 h 106.8 c -8.8,-11.3 -26.9,-31.5 -54.1,-60.7 -5.8,6.7 -13.9,15.7 -24.3,27 z m 98.4,0.2 c 4.5,-14.2 7.4,-23.9 8.9,-29 -4.2,0.1 -16,0.1 -35.6,-0.2 -14.7,-0.1 -26.2,0.3 -34.7,1.1 4,4.2 12.6,13.9 25.9,29 10.7,12.1 19.6,21.4 26.8,28 2.1,-7.3 5,-16.9 8.7,-28.9 z m -27,163.5 c 25.2,-30 51.9,-63.2 80.1,-99.4 8.6,-11.1 13.6,-17.9 14.9,-20.4 -7.9,0.9 -19.6,1.3 -35.3,1.1 -21.2,-0.3 -33.8,-0.3 -37.9,-0.2 -5.2,16 -14.5,42.8 -27.8,80.3 -12.1,34.2 -21.2,60.6 -27.1,79.2 4.5,-6 15.5,-19.6 33.1,-40.6 z m 94.3,-129.9 c -6.1,-8 -23,-27.7 -50.7,-59 -1.7,6.1 -4.6,15.9 -8.7,29.4 -4,12.5 -6.9,22.3 -8.7,29.6 z"
         id="path25"
         style="fill:#ffffff;fill-opacity:1;stroke:#fafafa;stroke-width:4.03758;stroke-dasharray:none;stroke-opacity:1" /></g><text
       xml:space="preserve"
       transform="matrix(0.26458333,0,0,0.26458333,85.873024,114.794)"
       id="text1"
       style="font-size:37.3333px;font-family:Impact;-inkscape-font-specification:'Impact, Normal';white-space:pre;shape-inside:url(#rect2);display:inline;fill:#ffffff;stroke-width:0" /><text
       xml:space="preserve"
       style="font-size:61.8559px;font-family:Impact;-inkscape-font-specification:'Impact, Normal';fill:#007acd;fill-opacity:1;stroke-width:0"
       x="203.40746"
       y="184.77356"
       id="text3"><tspan
         sodipodi:role="line"
         id="tspan3"
         style="font-style:normal;font-variant:normal;font-weight:normal;font-stretch:normal;font-size:61.8559px;font-family:'Lequire DEMO';-inkscape-font-specification:'Lequire DEMO';fill:#007acd;fill-opacity:1;stroke-width:0"
         x="203.40746"
         y="184.77356">Garnet.js</tspan></text></g></svg>
