<?xml version="1.0" encoding="UTF-8" standalone="no"?>
<!-- Created with Inkscape (http://www.inkscape.org/) -->

<svg
   width="479.10699mm"
   height="122.107mm"
   viewBox="0 0 479.10699 122.107"
   version="1.1"
   id="svg1"
   xml:space="preserve"
   inkscape:version="1.3.2 (091e20e, 2023-11-25)"
   sodipodi:docname="garnet-logotype.svg"
   xmlns:inkscape="http://www.inkscape.org/namespaces/inkscape"
   xmlns:sodipodi="http://sodipodi.sourceforge.net/DTD/sodipodi-0.dtd"
   xmlns="http://www.w3.org/2000/svg"
   xmlns:svg="http://www.w3.org/2000/svg"><sodipodi:namedview
     id="namedview1"
     pagecolor="#ffffff"
     bordercolor="#000000"
     borderopacity="0.25"
     inkscape:showpageshadow="2"
     inkscape:pageopacity="0.0"
     inkscape:pagecheckerboard="0"
     inkscape:deskcolor="#d1d1d1"
     inkscape:document-units="mm"
     inkscape:zoom="0.5946522"
     inkscape:cx="829.89687"
     inkscape:cy="237.95422"
     inkscape:window-width="1712"
     inkscape:window-height="1040"
     inkscape:window-x="0"
     inkscape:window-y="34"
     inkscape:window-maximized="0"
     inkscape:current-layer="layer1" /><defs
     id="defs1"><rect
       x="430.50375"
       y="68.947868"
       width="1032.5363"
       height="248.88498"
       id="rect2" /><inkscape:path-effect
       effect="fillet_chamfer"
       id="path-effect10"
       is_visible="true"
       lpeversion="1"
       nodesatellites_param="F,0,0,1,0,12.2803,0,1 @ F,0,0,1,0,12.2803,0,1 @ F,0,0,1,0,12.2803,0,1 @ F,0,0,1,0,12.2803,0,1"
       radius="0"
       unit="px"
       method="auto"
       mode="F"
       chamfer_steps="1"
       flexible="false"
       use_knot_distance="true"
       apply_no_radius="true"
       apply_with_radius="true"
       only_selected="false"
       hide_knots="false" /></defs><g
     inkscape:label="Layer 1"
     inkscape:groupmode="layer"
     id="layer1"
     transform="translate(-85.873024,-114.794)"><path
       style="fill:#007acd;fill-opacity:1;stroke-width:0.264583"
       id="rect1"
       width="96.106598"
       height="96.106598"
       x="85.873024"
       y="114.794"
       inkscape:path-effect="#path-effect10"
       sodipodi:type="rect"
       d="m 98.153324,114.794 h 71.545996 a 12.2803,12.2803 45 0 1 12.2803,12.2803 v 71.546 a 12.2803,12.2803 135 0 1 -12.2803,12.2803 H 98.153324 a 12.2803,12.2803 45 0 1 -12.2803,-12.2803 v -71.546 a 12.2803,12.2803 135 0 1 12.2803,-12.2803 z"
       transform="translate(14.287503,13.229169)" /><g
       id="g10"
       transform="matrix(0.25981121,0,0,0.26930456,-72.163352,7.3015874)"
       style="stroke:#fafafa;stroke-width:4.03758;stroke-dasharray:none;stroke-opacity:1"><path
         fill="#5b5b5f"
         d="m 848.15239,773.1273 c -13.3,-16.5 -39.3,-48.6 -77.8,-96.2 -32.5,-40.2 -58.4,-72.3 -77.7,-96.4 v -4.6 c 5.8,-6.7 14.2,-16.3 25.2,-28.8 11.2,-12.8 19.7,-22.6 25.5,-29.2 10.2,-11.8 16,-18 17.5,-18.5 h 178.8 c 4.4,4.3 15.8,17.2 34.4,38.7 19.3,22.3 30.40001,35.7 33.10001,40.4 -17.60001,23.4 -69.70001,88.2 -156.20001,194.4 h -2.8 z m -66.9,-188.8 h -72.4 c 37.4,48.7 80.1,101.6 128.1,158.5 -17.3,-47.6 -35.9,-100.4 -55.7,-158.5 z m -68.9,-16.3 c -0.8,0.5 -1.3,1 -1.6,1.3 -1.3,1.1 -1.7,2.4 -1.2,3.8 h 67.5 c -6.9,-24.3 -13,-43.9 -18.2,-59 -19.8,23.3 -34.8,40.8 -45,52.7 -0.4,0.3 -0.8,0.7 -1.5,1.2 z m 119.6,-50 c 0.2,-0.3 0.7,-0.8 1.5,-1.5 0.8,-0.8 1.3,-1.3 1.6,-1.7 1.2,-1.5 1.6,-2.9 1.2,-4.2 -4.2,0.1 -15.8,0.1 -35,-0.2 -14.3,-0.1 -25.6,0.3 -34,1.1 4.2,12.5 10,31.5 17.5,57 9.4,-9.1 25.2,-25.9 47.2,-50.5 z m 48,151.2 c 12.5,-35.9 22.3,-64.2 29.4,-84.9 h -118.9 c 33.3,95.5 53.2,152.1 59.7,169.6 5.7,-16.2 15.6,-44.4 29.8,-84.7 z m -54.7,-129.8 c -13.1,14.3 -21.2,23.1 -24.2,26.5 -3.2,3.4 -4.6,5.9 -4.2,7.2 h 106.8 c -8.8,-11.3 -26.9,-31.5 -54.1,-60.7 -5.8,6.7 -13.9,15.7 -24.3,27 z m 98.4,0.2 c 4.5,-14.2 7.4,-23.9 8.9,-29 -4.2,0.1 -16,0.1 -35.6,-0.2 -14.7,-0.1 -26.2,0.3 -34.7,1.1 4,4.2 12.6,13.9 25.9,29 10.7,12.1 19.6,21.4 26.8,28 2.1,-7.3 5,-16.9 8.7,-28.9 z m -27,163.5 c 25.2,-30 51.9,-63.2 80.1,-99.4 8.6,-11.1 13.6,-17.9 14.9,-20.4 -7.9,0.9 -19.6,1.3 -35.3,1.1 -21.2,-0.3 -33.8,-0.3 -37.9,-0.2 -5.2,16 -14.5,42.8 -27.8,80.3 -12.1,34.2 -21.2,60.6 -27.1,79.2 4.5,-6 15.5,-19.6 33.1,-40.6 z m 94.3,-129.9 c -6.1,-8 -23,-27.7 -50.7,-59 -1.7,6.1 -4.6,15.9 -8.7,29.4 -4,12.5 -6.9,22.3 -8.7,29.6 z"
         id="path25"
         style="fill:#ffffff;fill-opacity:1;stroke:#fafafa;stroke-width:4.03758;stroke-dasharray:none;stroke-opacity:1" /></g><text
       xml:space="preserve"
       transform="matrix(0.26458333,0,0,0.26458333,85.873024,114.794)"
       id="text1"
       style="font-size:37.3333px;font-family:Impact;-inkscape-font-specification:'Impact, Normal';white-space:pre;shape-inside:url(#rect2);display:inline;fill:#ffffff;stroke-width:0" /><path
       style="font-size:61.8559px;font-family:'Lequire DEMO';-inkscape-font-specification:'Lequire DEMO';fill:#007acd;stroke-width:0"
       d="m 221.40612,176.35298 c 0,11.25778 7.42271,22.57741 22.32998,22.57741 5.38146,0 10.57736,-2.04125 14.165,-4.70105 0.37113,-0.30928 0.61856,-0.80413 0.61856,-1.29898 v -17.75264 c 0,-0.49485 -0.30928,-0.80413 -0.80413,-0.80413 h -16.02068 c -0.49484,0 -0.80412,0.30928 -0.80412,0.80413 v 5.31961 c 0,0.49485 0.30928,0.80413 0.80412,0.80413 h 7.60828 c 1.05155,0 1.73196,0.74227 1.73196,1.79382 v 4.7629 c 0,3.34022 -4.82476,3.71135 -7.23714,3.71135 -19.48461,0 -19.48461,-30.4331 0,-30.4331 3.27837,0 6.06188,1.23712 7.91756,2.59795 0.43299,0.30928 0.80412,0.24742 1.1134,-0.18557 l 3.34022,-4.7629 c 0.24743,-0.37114 0.24743,-0.86598 -0.18556,-1.11341 -3.77321,-2.16495 -7.91756,-3.89692 -12.24747,-3.89692 -14.90727,0 -22.32998,11.25777 -22.32998,22.5774 z m 44.22695,21.64957 h 6.12374 c 0.43299,0 0.92784,-0.30928 1.1134,-0.74227 l 12.00005,-25.97948 c 0.24742,-0.49485 0.49485,-0.74227 0.74227,-0.74227 0.24742,0 0.49485,0.24742 0.74227,0.74227 l 5.56703,12.12376 c 0.43299,0.98969 0.0619,1.60825 -0.98969,1.60825 h -6.18559 c -0.49485,0 -0.92784,0.30928 -1.11341,0.74227 l -2.53609,5.44332 c -0.18557,0.43299 0,0.74227 0.49485,0.74227 h 12.49489 c 1.05155,0 2.04124,0.61856 2.47423,1.5464 l 1.73197,3.77321 c 0.18557,0.43299 0.68041,0.74227 1.17526,0.74227 h 6.06188 c 0.49485,0 0.68041,-0.30928 0.49485,-0.74227 l -19.54647,-42.61872 c -0.12371,-0.30928 -0.49485,-0.5567 -0.86598,-0.5567 -0.37114,0 -0.80413,0.24742 -0.92784,0.5567 l -19.54646,42.61872 c -0.18557,0.43299 0,0.74227 0.49484,0.74227 z m 48.43317,0 h 5.81446 c 0.49484,0 0.80412,-0.30928 0.80412,-0.80413 v -33.71146 c 0,-1.05155 0.68042,-1.79382 1.73197,-1.79382 h 4.51548 c 9.34024,0 9.40209,12.0619 0,12.0619 h -1.11341 c -0.49485,0 -0.80412,0.30927 -0.80412,0.80412 v 5.38147 c 0,0.49484 0.24742,1.05155 0.49484,1.42268 l 11.07221,15.95882 c 0.30928,0.43299 0.80412,0.68042 1.29897,0.68042 h 7.23714 c 0.49485,0 0.68042,-0.24743 0.37114,-0.68042 l -11.38149,-16.20624 c -0.5567,-0.80413 -0.30928,-1.60826 0.61856,-2.1031 10.76293,-5.7526 8.84539,-22.88669 -6.00002,-24.24752 -0.74227,-0.0618 -1.79382,-0.0618 -3.52579,-0.0618 h -11.62891 c -0.18556,0 -0.30928,0.12371 -0.30928,0.30928 v 42.18572 c 0,0.49485 0.30928,0.80413 0.80413,0.80413 z m 38.78361,-36.1857 c 0,0.49484 0.24743,1.05155 0.55671,1.42268 l 31.73207,34.14446 c 0.30928,0.37113 0.86598,0.61856 1.36083,0.61856 h 0.86598 c 0.49485,0 0.80413,-0.30928 0.80413,-0.80413 v -41.69087 c 0,-0.49485 -0.30928,-0.80413 -0.80413,-0.80413 h -5.81445 c -0.49485,0 -0.80413,0.30928 -0.80413,0.80413 v 24.6805 c 0,0.61856 -0.18556,0.92784 -0.43299,0.92784 -0.24742,0 -0.43299,-0.12371 -0.74227,-0.43299 l -23.69081,-25.42278 c -0.30928,-0.30928 -0.86598,-0.5567 -1.29897,-0.5567 h -0.92784 c -0.49485,0 -0.80413,0.30928 -0.80413,0.80413 z m 0,35.38157 c 0,0.49485 0.30928,0.80413 0.80413,0.80413 h 5.81445 c 0.49485,0 0.80413,-0.30928 0.80413,-0.80413 v -16.57738 c 0,-0.49485 -0.24742,-1.05155 -0.5567,-1.36083 l -6.3093,-6.80415 c -0.30928,-0.37113 -0.55671,-0.30928 -0.55671,0.18557 z m 43.73211,-18.18563 c 0,0.49484 0.30928,0.80412 0.80413,0.80412 h 26.41247 c 0.49484,0 0.80412,-0.30928 0.80412,-0.80412 v -5.31961 c 0,-0.49485 -0.30928,-0.80413 -0.80412,-0.80413 h -26.41247 c -0.49485,0 -0.80413,0.30928 -0.80413,0.80413 z m 0,12.86602 v 5.31961 c 0,0.49485 0.30928,0.80413 0.80413,0.80413 h 26.41247 c 0.49484,0 0.80412,-0.30928 0.80412,-0.80413 v -5.31961 c 0,-0.49484 -0.30928,-0.80412 -0.80412,-0.80412 h -26.41247 c -0.49485,0 -0.80413,0.30928 -0.80413,0.80412 z m 0.80413,-30.24753 h 26.41247 c 0.49484,0 0.80412,-0.30928 0.80412,-0.80413 v -5.3196 c 0,-0.49485 -0.30928,-0.80413 -0.80412,-0.80413 h -26.41247 c -0.49485,0 -0.80413,0.30928 -0.80413,0.80413 v 5.3196 c 0,0.49485 0.30928,0.80413 0.80413,0.80413 z m 33.95887,0 h 34.02075 c 0.49485,0 0.80413,-0.30928 0.80413,-0.80413 v -5.3196 c 0,-0.49485 -0.30928,-0.80413 -0.80413,-0.80413 h -34.02075 c -0.49484,0 -0.80412,0.30928 -0.80412,0.80413 v 5.3196 c 0,0.49485 0.30928,0.80413 0.80412,0.80413 z m 13.23717,35.56714 c 0,0.49485 0.37113,0.80413 0.80412,0.80413 h 5.81446 c 0.49485,0 0.80413,-0.30928 0.80413,-0.80413 v -28.76299 c 0,-0.49485 -0.30928,-0.80413 -0.80413,-0.80413 h -5.81446 c -0.43299,0 -0.80412,0.30928 -0.80412,0.80413 z m 26.59808,-3.03094 c 0,2.22681 1.79382,4.02064 4.02064,4.02064 2.22681,0 3.95877,-1.79383 3.95877,-4.02064 0,-2.22681 -1.73196,-3.95878 -3.95877,-3.95878 -2.22682,0 -4.02064,1.73197 -4.02064,3.95878 z m 13.60828,1.67011 c 2.47423,2.1031 6.3093,3.03094 8.72168,3.03094 7.29899,0 13.79386,-4.14434 13.79386,-16.39181 v -14.04129 c 0,-0.49485 -0.30928,-0.80413 -0.80412,-0.80413 h -5.81446 c -0.49484,0 -0.80412,0.30928 -0.80412,0.80413 v 13.79386 c 0,6.00003 -3.21651,9.34024 -7.17529,9.34024 -1.97939,0 -4.14434,-0.86598 -6.18559,-2.59794 -0.37113,-0.30928 -0.61856,-0.24743 -0.74227,0.18556 l -1.42268,5.31961 c -0.12372,0.49485 0.0618,1.05155 0.43299,1.36083 z m 15.09284,-40.33004 v 5.3196 c 0,0.49485 0.30928,0.80413 0.80412,0.80413 h 5.81446 c 0.49484,0 0.80412,-0.30928 0.80412,-0.80413 v -5.3196 c 0,-0.49485 -0.30928,-0.80413 -0.80412,-0.80413 h -5.81446 c -0.49484,0 -0.80412,0.30928 -0.80412,0.80413 z m 15.52578,37.36096 c 3.95878,4.82476 10.26808,6.92786 16.39181,6.92786 7.42271,0 15.7114,-3.95878 15.7114,-12.37118 0,-14.7217 -22.88668,-13.29902 -24.00009,-22.20627 -0.0618,-0.49485 -0.37113,-0.80413 -0.86598,-0.80413 h -5.62889 c -0.49484,0 -0.86598,0.37114 -0.86598,0.80413 0,14.53614 24.06195,13.6083 24.06195,21.95885 0,4.08249 -4.88662,5.3196 -8.16498,5.3196 -4.02064,0 -8.16498,-0.98969 -10.88664,-4.14434 -0.30928,-0.37114 -0.74227,-0.37114 -1.11341,-0.12371 l -4.51548,3.52578 c -0.37113,0.30928 -0.43299,0.74227 -0.12371,1.11341 z m 7.60828,-37.36096 2.72166,4.88661 c 0.24742,0.43299 0.61856,0.5567 1.1134,0.37114 1.23712,-0.43299 2.65981,-0.55671 3.89692,-0.55671 3.77321,0 7.23714,1.48455 10.02066,3.95878 0.30928,0.30928 0.74227,0.30928 1.11341,-0.0618 l 3.77321,-4.26806 c 0.30928,-0.30928 0.30928,-0.80413 -0.0619,-1.11341 -4.08249,-3.40207 -9.27838,-5.81445 -14.59799,-5.81445 -2.72166,0 -5.38147,0.5567 -7.67013,1.54639 -0.43299,0.18557 -0.55671,0.68042 -0.30928,1.05156 z"
       id="text3"
       aria-label="Garnet.js" /></g></svg>
